<svg xmlns="http://www.w3.org/2000/svg" xmlns:xlink="http://www.w3.org/1999/xlink" xml:space="preserve" style="fill-rule:evenodd;clip-rule:evenodd;stroke-linejoin:round;stroke-miterlimit:2" viewBox="0 0 60 60">
  <use xlink:href="#a" width="56.305" height="56.305" x="1.87" y="1.87" transform="scale(.9878)"/>
  <path d="M58.153 15.924c0-7.77-6.308-14.077-14.077-14.077H15.924c-7.77 0-14.077 6.308-14.077 14.077v28.152c0 7.77 6.308 14.077 14.077 14.077h28.152c7.77 0 14.077-6.308 14.077-14.077V15.924Z"/>
  <use xlink:href="#b" width="59.805" height="59.805" x=".098" y=".098" transform="scale(.99675)"/>
  <path d="M57.586 16.104c0-7.931-6.439-14.37-14.37-14.37H17.654c-7.931 0-14.37 6.439-14.37 14.37v25.562c0 7.931 6.439 14.369 14.37 14.369h25.562c7.931 0 14.37-6.438 14.37-14.369V16.104Zm-3.178 0v25.562c0 6.177-5.015 11.192-11.192 11.192H17.654c-6.177 0-11.192-5.015-11.192-11.192V16.104c0-6.177 5.015-11.192 11.192-11.192h25.562c6.177 0 11.192 5.015 11.192 11.192Z" style="fill:#f36902" transform="translate(-3.52 -1.812) scale(1.10135)"/>
  <path d="M21.999 2.875 7.693 18.498l-5.698-6.13-1.79 1.664 6.6 7.1a1.223 1.223 0 0 0 1.796-.007l15.2-16.6-1.802-1.65Z" style="fill:#f37302" transform="translate(6.847 6.47) scale(1.92892)"/>
</svg>
